<svg fill="none" height="639" viewBox="0 0 1479 639" width="1479" xmlns="http://www.w3.org/2000/svg" xmlns:xlink="http://www.w3.org/1999/xlink"><radialGradient id="a" cx="0" cy="0" gradientTransform="matrix(1478.99998864 -637.99873134 464.07541477 1075.81331978 0 638)" gradientUnits="userSpaceOnUse" r="1"><stop offset="0" stop-color="#ff10b8"/><stop offset=".130833" stop-color="#ff10b8"/><stop offset="1" stop-color="#2d3ef1"/></radialGradient><linearGradient id="b" gradientUnits="userSpaceOnUse" x1="106.995" x2="1478.99" y1="0" y2="-.000027"><stop offset="0" stop-color="#ff10b8" stop-opacity="0"/><stop offset="1" stop-color="#ff10b8"/></linearGradient><path clip-rule="evenodd" d="m0 0h1479v638.005h-1479z" fill="url(#a)" fill-rule="evenodd"/><path d="m408.62 0c.841.70213 1.577 1.52578 2.541 2.08614 30.754 17.99886 52.309 41.96576 67.163 70.34806 10.271 19.6191 16.963 40.0758 21.727 61.0308 2.614 11.518 4.248 23.117 5.686 34.756 1.97 16.041 2.394 32.116 1.553 48.197-1.005 19.275-3.873 38.334-11.268 56.758-4.363 10.869-10.328 21.057-19.332 29.874-12.052 11.815-27.486 18.478-45.969 20.436-18.882 1.999-37.185-.493-55.169-5.09-23.049-5.894-44.416-14.779-64.9-25.176-36.033-18.302-68.39-40.392-98.099-65.203-22.371-18.688-42.7-38.786-60.21-60.728-14.887-18.653-27.462-38.32-35.608-59.755-5.409-14.2655-8.571-28.8144-8.081-43.8157.604-18.3972 7.092-35.1943 20.402-50.0335 4.543-5.0567 9.756-9.64755 15.647-13.6848zm1070.37 392.248c-.84-1.648-1.62-3.322-2.53-4.942-5.59-9.877-13.16-18.661-22.18-26.553-20.01-17.533-44.27-29.726-71.47-38.016-16.41-4.996-33.37-8.142-50.79-9.742-19.47-1.796-38.91-1.533-58.25.675-29.74 3.396-58.11 10.795-85.36 21.172-29.8 11.349-57.6 25.439-83.59 41.979-26 16.541-50 34.762-69.37 56.812-9.17 10.431-16.9 21.557-21.06 34.094-4.75 14.306-3.55 28.085 6.23 40.919 5.6 7.352 13.08 13.185 21.64 18.154 14.58 8.466 30.9 13.692 47.97 17.432 19.97 4.368 40.33 6.555 60.93 7.271 36.04 1.249 71.85-.824 107.43-5.61 30.69-4.132 60.88-9.985 90.31-18.377 28.31-8.068 55.48-18.08 80.02-32.467 9.45-5.543 18.44-11.572 26.47-18.498 9.87-8.521 17.54-18.296 23.61-28.943-.01-18.451-.01-36.909-.01-55.36zm-866.101 245.745c.474-1.161 1.152-2.302 1.381-3.497 3.415-17.621 4.902-35.295 1.863-53.072-2.884-16.851-9.274-32.601-21.808-46.34-12.648-13.854-29.096-23.13-49.458-27.579-19.029-4.159-38.035-3.436-56.942.5-19.888 4.138-37.969 11.598-54.997 20.915-24.921 13.644-46.41 30.468-66.118 48.92-15.876 14.859-30.306 30.644-43.395 47.252-3.416 4.327-6.929 8.601-10.402 12.901zm419.981 0c.23-4.827.45-9.654.7-14.481.17-3.302 1.14-6.421 2.96-9.384 3.15-5.131 5.59-10.472 7.04-16.129 3.59-13.942-.31-26.283-11.28-37.179-7.98-7.92-17.99-13.712-28.95-18.37-23.73-10.087-49.215-14.894-75.672-16.44-21.726-1.269-43.248-.263-64.32 4.699-13.343 3.139-25.812 7.757-36.744 14.947-10.189 6.704-17.404 14.792-20.296 25.655-5.9 22.124-6.896 44.302-3.032 66.682zm446.12 0c0-18.451 0-36.909 0-55.36-2.72-.041-5.44-.135-8.16-.108-25.47.257-50.88 1.316-76.24 3.328-23.6 1.87-47.07 4.382-70.32 8.23-18.71 3.099-37.18 6.954-54.91 12.909-10.64 3.578-20.81 7.885-29.63 14.069-6.51 4.564-11.92 9.843-14.04 16.939 84.44-.007 168.87-.007 253.3-.007zm-499.233-637.993c2.713 2.03213 5.393 4.09801 8.138 6.08963 10.075 7.30487 21.355 13.17847 32.945 18.63347 25.12 11.8214 51.44 21.469 78.56 29.6717 25.72 7.7775 51.89 14.1912 79.06 17.5128 9.57 1.1679 19.19 1.8836 28.87 1.0464 3.95-.3375 7.81-.9451 11.33-2.5655 3.44-1.5865 5.76-3.8887 5.69-7.2508-.06-2.444-.11-5.0364-1.11-7.2778-1.87-4.1993-4.11-8.3311-6.74-12.2401-9.05-13.4012-20.21-25.5805-32.31-37.19261-2.12-2.03213-3.92-4.28029-5.87-6.42719-66.2 0-132.38 0-198.563 0zm499.233 0c-33.23 0-66.45 0-99.68 0-.84 1.28274-1.59 2.61273-2.53 3.84146-7.51 9.80284-14.07 20.01744-19.2 30.83294-1.79 3.7807-3.27 7.6289-2.68 11.8417.62.7359 1.21 1.4853 1.87 2.1942.89.9857 1.81 1.9646 2.78 2.9098 10.93 10.6669 24.18 19.0655 38.31 26.5594 24.02 12.7396 49.7 22.7115 76.39 30.9675 1.51.466 3.16.608 4.73.898.01-36.6792.01-73.3654.01-110.045zm0 122.198c-.76-.196-1.55-.345-2.29-.588-20.65-6.953-41.53-13.381-63.21-17.891-10.44-2.173-20.99-3.895-31.76-4.1448-4.57-.108-9.25.3308-13.73 1.1068-5.69.993-8.58 3.761-5.73 10.006.99 2.16 2.7 4.165 4.41 6.029 6.62 7.19 14.64 13.3 22.77 19.274 11.8 8.656 23.77 17.149 35.7 25.669 16.78 11.976 33.59 23.919 50.42 35.842.99.702 2.27 1.107 3.41 1.654.01-25.648.01-51.303.01-76.957zm-436.09 202.132c19.53-1.883 38.58-5.637 57.1-11.153 30.43-9.074 58.13-21.969 81.92-40.258 13.56-10.424 25.07-22.178 33.55-35.856 7.88-12.719 12.29-26.188 12.51-40.5.22-14.576-4.18-28.315-11.99-41.291-8.64-14.36-20.65-26.694-34.6-37.746-14.81-11.727-31.24-21.7122-48.63-30.6509-19.11-9.8298-39.13-18.2014-59.82-25.5265-23.45-8.2973-47.54-15.008-72.31-20.0242-19.353-3.9225-38.963-6.542-58.875-7.3048-19.153-.7359-38.101.3578-56.55 5.1242-18.646 4.8136-34.603 13.0704-47.325 25.3712-14.062 13.597-22.176 29.5772-26.474 46.901-4.036 16.284-5.294 32.77-3.039 49.345.972 7.149 1.838 14.339 3.554 21.381 4.976 20.416 13.302 39.873 25.648 58.088 11.464 16.912 25.534 32.082 43.085 45.051 21.268 15.724 45.519 26.917 72.867 33.533 19.732 4.773 39.873 7.157 60.489 7.204 9.62-.547 19.31-.77 28.89-1.688zm-458.846-10.464c-15.099 1.208-29.39 4.651-42.48 11.078-17.845 8.764-29.529 21.361-34.088 38.233-3.023 11.18-2.361 22.346.498 33.473 3.448 13.428 9.699 25.965 17.837 37.894 16.628 24.386 38.877 44.41 67.899 58.993 31.294 15.723 65.121 22.468 101.653 18.201 22.723-2.66 43.305-9.607 60.644-22.36 9.829-7.231 17.232-15.872 21.767-26.134 6.814-15.434 5.891-30.941.294-46.395-6.815-18.802-19.414-34.843-35.339-49.183-19.504-17.553-42.545-31.109-68.847-40.831-23.376-8.642-47.783-13.671-73.545-13.901-5.442.304-10.884.5-16.293.932zm-344.986 213.576c40.47-10.816 76.535-27.984 107.756-51.945 8.187-6.285 15.614-13.158 22.535-20.422 3.121-3.275 4.649-6.805 4.143-10.944-.164-1.343-.278-2.687-.499-4.024-1.356-8.25-4.992-15.879-9.764-23.129-8.939-13.584-21.023-25.135-34.571-35.667-25.166-19.572-53.518-35.37-84.338-48.191-17.682-7.359-35.944-13.475-55.398-16.858-10.058-1.748-20.223-2.592-30.404-.952-11.087 1.79-18.793 6.92-21.399 16.332-.817 2.937-1.234 5.995-1.348 9.006-.36 9.08 1.748 17.924 4.494 26.64 2.051 6.522 4.6 12.942 6.945 19.403 1.52 4.173 1.626 8.115-1.855 11.815-1.994 2.12-3.53 4.537-5.245 6.832-12.028 16.048-21.964 32.886-28.222 51.094-4.086 11.889-6.161 23.967-4.078 36.349 3.22 19.112 16.277 31.69 37.823 38.407 11.602 3.619 23.85 4.389 31.784 4.571 24.006-.128 43.052-3.349 61.641-8.317z" fill="url(#b)"/></svg>